<svg xmlns="http://www.w3.org/2000/svg" width="384" height="512" viewBox="0 0 384 512"><title>  Google Scholar</title><path d="M343.8 106.7V79.4L363.5 64H149.6L20.5 176.3h85.7c-0.2 2.1-0.2 4-0.2 6.2 0 20.8 7.2 38.1 21.7 51.9 14.5 13.8 32.3 20.6 53.3 20.6 4.9 0 9.8-0.4 14.4-1-2.9 6.5-4.4 12.5-4.4 18.1 0 9.9 4.5 20.4 13.5 31.6-39.2 2.7-68.1 9.7-86.4 21.2-10.5 6.5-19 14.7-25.4 24.5-6.4 9.9-9.6 20.5-9.6 32 0 9.6 2.1 18.3 6.2 26.1 4.2 7.7 9.6 14.1 16.3 19 6.7 5 14.5 9.1 23.2 12.5 8.7 3.3 17.4 5.7 26.1 7.1 8.6 1.3 17.2 2 25.7 2 13.5 0 27-1.7 40.5-5.2 13.6-3.5 26.3-8.6 38.2-15.5 11.9-6.8 21.5-16.1 28.9-27.7 7.4-11.7 11.1-24.8 11.1-39.3 0-11-2.2-21-6.8-30.1-4.5-9.1-9.9-16.5-16.5-22.3-6.5-5.8-13-11.2-19.5-16-6.5-4.8-12-9.8-16.5-14.8-4.5-5-6.7-10.1-6.7-15 0-4.9 1.7-9.7 5.2-14.3 3.5-4.6 7.7-9 12.6-13.3 4.9-4.2 9.9-9 14.8-14.1 4.9-5.1 9.1-11.8 12.6-20 3.5-8.2 5.2-17.4 5.2-27.8 0-13.5-2.5-24.5-7.5-33.3-0.6-1-1.2-1.8-1.9-3l56.9-46.7v17.1c-7.4 0.9-6.6 5.3-6.6 10.6v128.7c0 6 4.9 10.8 10.8 10.8h4c6 0 10.8-4.9 10.8-10.8V117.3c0-5.3 0.8-9.7-6.6-10.6zM236.4 329.1c1.1 0.8 3.7 2.8 7.7 6 4 3.2 6.8 5.7 8.3 7.4 1.4 1.7 3.6 4.2 6.4 7.5 2.8 3.4 4.7 6.3 5.7 8.7 1 2.5 2 5.5 3 8.9 1 3.4 1.5 7 1.5 10.6 0 17-6.6 29.7-19.7 37.9-13.1 8.2-28.8 12.3-46.9 12.3-9.2 0-18.2-1.1-27.1-3.2-8.8-2.1-17.3-5.3-25.4-9.6-8.1-4.3-14.6-10.2-19.5-17.8-4.9-7.6-7.4-16.4-7.4-26.2 0-10.3 2.8-19.3 8.4-26.9 5.6-7.6 12.9-13.4 22-17.3 9.1-3.9 18.2-6.7 27.6-8.4 9.3-1.7 18.8-2.6 28.4-2.6 4.5 0 7.9 0.3 10.4 0.7 0.5 0.2 3 2.1 7.7 5.6 4.7 3.5 7.6 5.6 8.8 6.4zm-3.4-100.6c-7.4 8.9-17.7 13.3-31 13.3-11.9 0-22.3-4.8-31.3-14.3-9-9.5-15.4-20.3-19.3-32.4-3.9-12.1-5.9-24-5.9-35.6 0-13.7 3.6-25.4 10.8-35 7.2-9.6 17.5-14.5 30.9-14.5 11.9 0 22.4 5 31.4 15.2 9.1 10.1 15.6 21.4 19.5 34 3.9 12.5 5.9 24.5 5.9 36 0 13.4-3.7 24.6-11.1 33.5z" stroke-width="0.06"/></svg>