<?xml version="1.0" encoding="UTF-8" standalone="no"?>
<svg
   xmlns:dc="http://purl.org/dc/elements/1.1/"
   xmlns:cc="http://creativecommons.org/ns#"
   xmlns:rdf="http://www.w3.org/1999/02/22-rdf-syntax-ns#"
   xmlns:svg="http://www.w3.org/2000/svg"
   xmlns="http://www.w3.org/2000/svg"
   xmlns:sodipodi="http://sodipodi.sourceforge.net/DTD/sodipodi-0.dtd"
   xmlns:inkscape="http://www.inkscape.org/namespaces/inkscape"
   width="70pt"
   height="70pt"
   viewBox="0 0 70.000003 70"
   version="1.1"
   id="svg923"
   sodipodi:docname="nearpod.svg"
   inkscape:version="0.92.5 (2060ec1f9f, 2020-04-08)">
  <metadata
     id="metadata927">
    <rdf:RDF>
      <cc:Work
         rdf:about="">
        <dc:format>image/svg+xml</dc:format>
        <dc:type
           rdf:resource="http://purl.org/dc/dcmitype/StillImage" />
        <dc:title></dc:title>
      </cc:Work>
    </rdf:RDF>
  </metadata>
  <sodipodi:namedview
     pagecolor="#ffffff"
     bordercolor="#666666"
     borderopacity="1"
     objecttolerance="10"
     gridtolerance="10"
     guidetolerance="10"
     inkscape:pageopacity="0"
     inkscape:pageshadow="2"
     inkscape:window-width="1842"
     inkscape:window-height="1016"
     id="namedview925"
     showgrid="false"
     fit-margin-top="0"
     fit-margin-left="0"
     fit-margin-right="0"
     fit-margin-bottom="0"
     inkscape:zoom="3.5132497"
     inkscape:cx="78.417426"
     inkscape:cy="46.666665"
     inkscape:window-x="78"
     inkscape:window-y="27"
     inkscape:window-maximized="1"
     inkscape:current-layer="surface1" />
  <defs
     id="defs894">
    <clipPath
       id="clip1">
      <path
         d="m 243,17 h 28.32812 V 52 H 243 Z m 0,0"
         id="path891"
         inkscape:connector-curvature="0" />
    </clipPath>
  </defs>
  <g
     id="surface1">
    <path
       style="fill:#00abeb;fill-opacity:1;fill-rule:nonzero;stroke:none"
       d="M 35,0 C 15.683594,0 0,15.683594 0,35 0,54.316406 15.683594,70 35,70 54.316406,70 70,54.316406 70,35 69.960938,15.683594 54.316406,0.0390625 35,0"
       id="path912"
       inkscape:connector-curvature="0" />
    <path
       style="fill:#ffffff;fill-opacity:1;fill-rule:nonzero;stroke:none"
       d="m 22.378906,20.242188 1.492188,-3.023438 c 1.007812,-2.058594 2.984375,-3.226562 5.804687,-3.226562 h 15.648438 c 0.722656,-0.03906 1.492187,0.160156 2.09375,0.605468 0.445312,0.320313 0.6875,0.847657 0.6875,1.410157 0,0.402343 -0.121094,0.847656 -0.28125,1.210937 H 29.757813 c -1.128907,0 -1.976563,0.07813 -2.902344,1.8125 L 26.25,20.242188 14.917969,43.789063 H 10.96875 L 22.378906,20.242188"
       id="path914"
       inkscape:connector-curvature="0" />
    <path
       style="fill:#ffffff;fill-opacity:1;fill-rule:nonzero;stroke:none"
       d="m 10.804688,49.476563 c -0.441407,-0.324219 -0.683594,-0.847657 -0.683594,-1.410157 0,-0.445312 0.121094,-0.847656 0.324219,-1.25 h 4.757812 c 0.03906,0 0.07813,0.03906 0.121094,0.03906 h 20.441406 c 1.128906,0 1.976563,-0.08203 2.902344,-1.816406 l 0.605469,-1.207032 5.96875,-12.378906 0.03906,-0.121094 0.644531,-1.371093 1.9375,-4.074219 h 3.953125 l -9.800781,20.28125 c -0.08203,0.121094 -0.121094,0.285156 -0.242187,0.40625 l -0.07813,0.199219 C 40.683594,48.832031 38.710938,50 35.886719,50 H 12.902344 c -0.765625,0.121094 -1.492188,-0.08203 -2.097656,-0.523437"
       id="path916"
       inkscape:connector-curvature="0" />
    <path
       style="fill:#ffffff;fill-opacity:1;fill-rule:nonzero;stroke:none"
       d="m 46.210938,52.136719 c -0.08203,0.121094 -0.164063,0.28125 -0.242188,0.402344 l -0.08203,0.203125 c -1.007813,2.054687 -2.984375,3.226562 -5.804688,3.226562 H 24.433594 c -0.722656,0.03906 -1.488281,-0.164062 -2.09375,-0.605469 -0.445313,-0.324218 -0.6875,-0.847656 -0.6875,-1.410156 0,-0.445312 0.121094,-0.847656 0.324219,-1.25 h 4.757812 c 0.03906,0 0.08203,0.03906 0.121094,0.03906 h 13.304687 c 1.007813,0 1.816407,-0.160157 2.703125,-1.773438 L 43.46875,49.757813 54.839844,26.089844 h 3.949219 L 46.210938,52.136719"
       id="path918"
       inkscape:connector-curvature="0" />
    <path
       style="fill:#ffffff;fill-opacity:1;fill-rule:nonzero;stroke:none"
       d="M 59.554688,22.824219 H 34.636719 c -1.289063,0 -2.136719,0.28125 -2.941406,1.652344 l -7.140625,14.796875 -2.296875,4.636718 H 18.386719 L 28.546875,22.863281 c 1.007813,-2.058593 2.984375,-3.226562 5.808594,-3.226562 h 22.742187 c 0.726563,-0.03906 1.492188,0.160156 2.097657,0.605469 0.441406,0.324218 0.683593,0.847656 0.683593,1.410156 -0.03906,0.363281 -0.160156,0.808594 -0.324218,1.171875"
       id="path920"
       inkscape:connector-curvature="0" />
  </g>
</svg>
