<svg xmlns="http://www.w3.org/2000/svg" viewBox="0 0 50 50" width="50" height="50"><path d="M24.864 0A25 25 0 0 0 0 25.093 25 25 0 0 0 25.05 50 25 25 0 0 0 50 24.994v-.174A25 25 0 0 0 24.864 0Zm-12.89 15.23h26.052c.195 0 .38.023.553.077l-10.67 10.66a4.126 4.126 0 0 1-5.828 0l-10.66-10.66c.174-.054.358-.076.553-.076zM9.88 16.85 18.042 25 9.88 33.152a1.843 1.843 0 0 1-.077-.554V17.402c0-.196.022-.38.077-.553zm30.24 0c.055.173.077.357.077.553v15.196c0 .196-.022.38-.077.554L31.948 25Zm-20.547 9.68.966.977a6.276 6.276 0 0 0 4.45 1.834 6.258 6.258 0 0 0 4.45-1.834l.978-.977 8.162 8.162a1.843 1.843 0 0 1-.553.076H11.974c-.195 0-.38-.022-.553-.076z" style="fill:#838383;fill-opacity:1;stroke-width:1.08547533"/></svg>