<svg xmlns="http://www.w3.org/2000/svg" xml:space="preserve" width="324" height="324"><path d="M2429.99 1215C2429.99 544.031 1886.06.102 1215.09.102 544.121.102.195 544.03.195 1215c0 670.97 543.926 1214.9 1214.895 1214.9 670.97 0 1214.9-543.93 1214.9-1214.9" style="fill:#fff;fill-opacity:1;fill-rule:nonzero;stroke:none" transform="matrix(.13333 0 0 -.13333 0 324)"/><path d="M1214.99 2430C543.973 2430 0 1886.03 0 1215.01 0 700.27 320.25 260.238 772.227 83.21c-10.629 96.13-20.219 243.97 4.214 348.919 22.071 94.82 142.469 603.931 142.469 603.931s-36.347 72.78-36.347 180.39c0 168.94 97.921 295.07 219.847 295.07 103.65 0 153.73-77.83 153.73-171.15 0-104.25-66.37-260.1-100.63-404.53-28.62-120.942 60.65-219.559 179.92-219.559 215.96 0 381.95 227.699 381.95 556.379 0 290.91-209.04 494.31-507.51 494.31-345.706 0-548.624-259.3-548.624-527.28 0-104.43 40.223-216.4 90.418-277.268 9.922-12.031 11.383-22.582 8.43-34.852-9.231-38.379-29.723-120.898-33.746-137.789-5.301-22.242-17.614-26.961-40.629-16.25C533.961 844.172 439.09 1066.02 439.09 1244.22c0 383.28 278.469 735.25 802.79 735.25 421.48 0 749.03-300.34 749.03-701.72 0-418.738-264.02-755.73-630.48-755.73-123.11 0-238.86 63.96-278.47 139.511 0 0-60.93-231.98-75.7-288.832-27.432-105.539-101.475-237.82-151.006-318.508C968.941 18.988 1089.75.011 1214.99.011 1886.03.012 2430 543.97 2430 1215.01 2430 1886.03 1886.03 2430 1214.99 2430" style="fill:#de1d25;fill-opacity:1;fill-rule:nonzero;stroke:none" transform="matrix(.13333 0 0 -.13333 0 324)"/></svg>