<svg width="699" height="398" viewBox="0 0 699 398" fill="none" xmlns="http://www.w3.org/2000/svg">
<line x1="1" y1="-1" x2="88.736" y2="-1" transform="matrix(-8.03732e-08 -1 -1 1.73752e-08 17 380.797)" stroke="#9F4BFF" stroke-width="2" stroke-linecap="round"/>
<line x1="1" y1="-1" x2="178.472" y2="-1" transform="matrix(-9.40123e-08 -1 -1 2.03237e-08 0 367.778)" stroke="#9F4BFF" stroke-width="2" stroke-linecap="round"/>
<line x1="1" y1="-1" x2="139.416" y2="-1" transform="matrix(-8.00039e-08 -1 -1 1.72954e-08 68 388.701)" stroke="#9F4BFF" stroke-width="2" stroke-linecap="round"/>
<line x1="1" y1="-1" x2="105.009" y2="-1" transform="matrix(9.40124e-08 -1 -1 -2.03238e-08 85 299.43)" stroke="#9F4BFF" stroke-width="2" stroke-linecap="round"/>
<line x1="1" y1="-1" x2="93.3855" y2="-1" transform="matrix(9.18758e-08 -1 -1 -1.98619e-08 102 301.755)" stroke="#9F4BFF" stroke-width="2" stroke-linecap="round"/>
<line x1="1" y1="-1" x2="43.6355" y2="-1" transform="matrix(9.40124e-08 -1 -1 -2.03238e-08 119 386.376)" stroke="#9F4BFF" stroke-width="2" stroke-linecap="round"/>
<line x1="1" y1="-1" x2="59.9089" y2="-1" transform="matrix(9.40124e-08 -1 -1 -2.03238e-08 136 315.703)" stroke="#9F4BFF" stroke-width="2" stroke-linecap="round"/>
<line x1="1" y1="-1" x2="151.97" y2="-1" transform="matrix(9.40124e-08 -1 -1 -2.03238e-08 136 184.121)" stroke="#9F4BFF" stroke-width="2" stroke-linecap="round"/>
<line x1="1" y1="-1" x2="66.4182" y2="-1" transform="matrix(9.40124e-08 -1 -1 -2.03238e-08 119 229.687)" stroke="#9F4BFF" stroke-width="2" stroke-linecap="round"/>
<line x1="1" y1="-1" x2="133.371" y2="-1" transform="matrix(9.40124e-08 -1 -1 -2.03238e-08 153 306.869)" stroke="#9F4BFF" stroke-width="2" stroke-linecap="round"/>
<line x1="1" y1="-1" x2="67.8131" y2="-1" transform="matrix(9.40124e-08 -1 -1 -2.03238e-08 170 349.645)" stroke="#9F4BFF" stroke-width="2" stroke-linecap="round"/>
<line x1="1" y1="-1" x2="15.7383" y2="-1" transform="matrix(9.40124e-08 -1 -1 -2.03238e-08 187 367.778)" stroke="#9F4BFF" stroke-width="2" stroke-linecap="round"/>
<line x1="1" y1="-1" x2="91.5257" y2="-1" transform="matrix(9.40124e-08 -1 -1 -2.03238e-08 204 386.376)" stroke="#9F4BFF" stroke-width="2" stroke-linecap="round"/>
<line x1="1" y1="-1" x2="132.442" y2="-1" transform="matrix(9.40124e-08 -1 -1 -2.03238e-08 187 293.85)" stroke="#9F4BFF" stroke-width="2" stroke-linecap="round"/>
<line x1="1" y1="-1" x2="132.442" y2="-1" transform="matrix(9.40124e-08 -1 -1 -2.03238e-08 204 181.797)" stroke="#9F4BFF" stroke-width="2" stroke-linecap="round"/>
<line x1="1" y1="-1" x2="132.442" y2="-1" transform="matrix(9.40124e-08 -1 -1 -2.03238e-08 170 188.306)" stroke="#9F4BFF" stroke-width="2" stroke-linecap="round"/>
<line x1="1" y1="-1" x2="138.951" y2="-1" transform="matrix(9.40124e-08 -1 -1 -2.03238e-08 221 306.869)" stroke="#9F4BFF" stroke-width="2" stroke-linecap="round"/>
<line x1="1" y1="-1" x2="147.32" y2="-1" transform="matrix(9.40124e-08 -1 -1 -2.03238e-08 255 235.731)" stroke="#9F4BFF" stroke-width="2" stroke-linecap="round"/>
<line x1="1" y1="-1" x2="147.32" y2="-1" transform="matrix(9.40124e-08 -1 -1 -2.03238e-08 289 190.631)" stroke="#9F4BFF" stroke-width="2" stroke-linecap="round"/>
<line x1="1" y1="-1" x2="61.3037" y2="-1" transform="matrix(9.40124e-08 -1 -1 -2.03238e-08 306 65.0934)" stroke="#9F4BFF" stroke-width="2" stroke-linecap="round"/>
<line x1="1" y1="-1" x2="183.121" y2="-1" transform="matrix(9.40124e-08 -1 -1 -2.03238e-08 340 184.121)" stroke="#9F4BFF" stroke-width="2" stroke-linecap="round"/>
<line x1="1" y1="-1" x2="66.8832" y2="-1" transform="matrix(9.40124e-08 -1 -1 -2.03238e-08 323 232.942)" stroke="#9F4BFF" stroke-width="2" stroke-linecap="round"/>
<line x1="1" y1="-1" x2="81.7617" y2="-1" transform="matrix(9.40124e-08 -1 -1 -2.03238e-08 238 271.068)" stroke="#9F4BFF" stroke-width="2" stroke-linecap="round"/>
<line x1="1" y1="-1" x2="25.0374" y2="-1" transform="matrix(9.40124e-08 -1 -1 -2.03238e-08 238 367.778)" stroke="#9F4BFF" stroke-width="2" stroke-linecap="round"/>
<line x1="1" y1="-1" x2="108.729" y2="-1" transform="matrix(9.40124e-08 -1 -1 -2.03238e-08 272 293.85)" stroke="#9F4BFF" stroke-width="2" stroke-linecap="round"/>
<line x1="1" y1="-1" x2="43.6355" y2="-1" transform="matrix(9.40124e-08 -1 -1 -2.03238e-08 289 386.376)" stroke="#9F4BFF" stroke-width="2" stroke-linecap="round"/>
<line x1="1" y1="-1" x2="99.4299" y2="-1" transform="matrix(9.40124e-08 -1 -1 -2.03238e-08 306 301.29)" stroke="#9F4BFF" stroke-width="2" stroke-linecap="round"/>
<line x1="1" y1="-1" x2="51.0748" y2="-1" transform="matrix(9.40124e-08 -1 -1 -2.03238e-08 323 393.815)" stroke="#9F4BFF" stroke-width="2" stroke-linecap="round"/>
<line x1="1" y1="-1" x2="61.3037" y2="-1" transform="matrix(9.40124e-08 -1 -1 -2.03238e-08 340 315.703)" stroke="#9F4BFF" stroke-width="2" stroke-linecap="round"/>
<line x1="1" y1="-1" x2="80.3668" y2="-1" transform="matrix(9.40124e-08 -1 -1 -2.03238e-08 51 293.85)" stroke="#9F4BFF" stroke-width="2" stroke-linecap="round"/>
<line x1="1" y1="-1" x2="125.467" y2="-1" transform="matrix(9.40124e-08 -1 -1 -2.03238e-08 34 308.264)" stroke="#9F4BFF" stroke-width="2" stroke-linecap="round"/>
<line x1="1" y1="-1" x2="73.3925" y2="-1" transform="matrix(-9.40123e-08 -1 -1 2.03237e-08 17 188.306)" stroke="#9F4BFF" stroke-width="2" stroke-linecap="round"/>
<line x1="1" y1="-1" x2="17.5981" y2="-1" transform="matrix(-9.40123e-08 -1 -1 2.03237e-08 0 132.512)" stroke="#9F4BFF" stroke-width="2" stroke-linecap="round"/>
<line x1="1" y1="-1" x2="17.5981" y2="-1" transform="matrix(-9.40123e-08 -1 -1 2.03237e-08 51 137.626)" stroke="#9F4BFF" stroke-width="2" stroke-linecap="round"/>
<line x1="1" y1="-1" x2="17.5981" y2="-1" transform="matrix(-9.40123e-08 -1 -1 2.03237e-08 85 102.755)" stroke="#9F4BFF" stroke-width="2" stroke-linecap="round"/>
<line x1="1" y1="-1" x2="79.4369" y2="-1" transform="matrix(-6.08635e-08 -1 -1 1.31576e-08 34 396.14)" stroke="#9F4BFF" stroke-width="2" stroke-miterlimit="16" stroke-linecap="round" stroke-dasharray="0.05 7"/>
<line x1="1" y1="-1" x2="86.4112" y2="-1" transform="matrix(-9.40123e-08 -1 -1 2.03237e-08 17 283.157)" stroke="#9F4BFF" stroke-width="2" stroke-miterlimit="16" stroke-linecap="round" stroke-dasharray="0.05 7"/>
<line x1="1" y1="-1" x2="42.2407" y2="-1" transform="matrix(-9.40123e-08 -1 -1 2.03237e-08 0 181.797)" stroke="#9F4BFF" stroke-width="2" stroke-miterlimit="16" stroke-linecap="round" stroke-dasharray="0.05 7"/>
<line x1="1" y1="-1" x2="49.215" y2="-1" transform="matrix(-9.40123e-08 -1 -1 2.03237e-08 34 169.243)" stroke="#9F4BFF" stroke-width="2" stroke-miterlimit="16" stroke-linecap="round" stroke-dasharray="0.05 7"/>
<line x1="1" y1="-1" x2="60.3738" y2="-1" transform="matrix(9.40124e-08 -1 -1 -2.03238e-08 51 203.185)" stroke="#9F4BFF" stroke-width="2" stroke-miterlimit="16" stroke-linecap="round" stroke-dasharray="0.05 7"/>
<line x1="1" y1="-1" x2="25.9673" y2="-1" transform="matrix(9.40124e-08 -1 -1 -2.03238e-08 51 111.124)" stroke="#9F4BFF" stroke-width="2" stroke-miterlimit="16" stroke-linecap="round" stroke-dasharray="0.05 7"/>
<line x1="1" y1="-1" x2="25.9673" y2="-1" transform="matrix(9.40124e-08 -1 -1 -2.03238e-08 85 79.0421)" stroke="#9F4BFF" stroke-width="2" stroke-miterlimit="16" stroke-linecap="round" stroke-dasharray="0.05 7"/>
<line x1="1" y1="-1" x2="25.9673" y2="-1" transform="matrix(9.40124e-08 -1 -1 -2.03238e-08 255 78.5771)" stroke="#9F4BFF" stroke-width="2" stroke-miterlimit="16" stroke-linecap="round" stroke-dasharray="0.05 7"/>
<line x1="1" y1="-1" x2="129.652" y2="-1" transform="matrix(9.40124e-08 -1 -1 -2.03238e-08 68 237.126)" stroke="#9F4BFF" stroke-width="2" stroke-miterlimit="16" stroke-linecap="round" stroke-dasharray="0.05 7"/>
<line x1="1" y1="-1" x2="80.8318" y2="-1" transform="matrix(9.40124e-08 -1 -1 -2.03238e-08 85 188.306)" stroke="#9F4BFF" stroke-width="2" stroke-miterlimit="16" stroke-linecap="round" stroke-dasharray="0.05 7"/>
<line x1="1" y1="-1" x2="79.4369" y2="-1" transform="matrix(9.40124e-08 -1 -1 -2.03238e-08 85 386.376)" stroke="#9F4BFF" stroke-width="2" stroke-miterlimit="16" stroke-linecap="round" stroke-dasharray="0.05 7"/>
<line x1="1" y1="-1" x2="86.8762" y2="-1" transform="matrix(9.40124e-08 -1 -1 -2.03238e-08 102 393.815)" stroke="#9F4BFF" stroke-width="2" stroke-miterlimit="16" stroke-linecap="round" stroke-dasharray="0.05 7"/>
<line x1="1" y1="-1" x2="96.1752" y2="-1" transform="matrix(1.24407e-07 -1 -1 -1.53583e-08 119 336.626)" stroke="#9F4BFF" stroke-width="2" stroke-miterlimit="16" stroke-linecap="round" stroke-dasharray="0.05 7"/>
<line x1="1" y1="-1" x2="96.1752" y2="-1" transform="matrix(1.24407e-07 -1 -1 -1.53583e-08 119 156.689)" stroke="#9F4BFF" stroke-width="2" stroke-miterlimit="16" stroke-linecap="round" stroke-dasharray="0.05 7"/>
<line x1="1" y1="-1" x2="63.1636" y2="-1" transform="matrix(9.40124e-08 -1 -1 -2.03238e-08 136 386.376)" stroke="#9F4BFF" stroke-width="2" stroke-miterlimit="16" stroke-linecap="round" stroke-dasharray="0.05 7"/>
<line x1="1" y1="-1" x2="56.1893" y2="-1" transform="matrix(1.24407e-07 -1 -1 -1.53583e-08 136 248.75)" stroke="#9F4BFF" stroke-width="2" stroke-miterlimit="16" stroke-linecap="round" stroke-dasharray="0.05 7"/>
<line x1="1" y1="-1" x2="55.2593" y2="-1" transform="matrix(1.24407e-07 -1 -1 -1.53583e-08 153 367.778)" stroke="#9F4BFF" stroke-width="2" stroke-miterlimit="16" stroke-linecap="round" stroke-dasharray="0.05 7"/>
<line x1="1" y1="-1" x2="76.6472" y2="-1" transform="matrix(1.24407e-07 -1 -1 -1.53583e-08 170 271.068)" stroke="#9F4BFF" stroke-width="2" stroke-miterlimit="16" stroke-linecap="round" stroke-dasharray="0.05 7"/>
<line x1="1" y1="-1" x2="96.1752" y2="-1" transform="matrix(1.24407e-07 -1 -1 -1.53583e-08 153 165.058)" stroke="#9F4BFF" stroke-width="2" stroke-miterlimit="16" stroke-linecap="round" stroke-dasharray="0.05 7"/>
<line x1="1" y1="-1" x2="96.1752" y2="-1" transform="matrix(1.24407e-07 -1 -1 -1.53583e-08 187 152.97)" stroke="#9F4BFF" stroke-width="2" stroke-miterlimit="16" stroke-linecap="round" stroke-dasharray="0.05 7"/>
<line x1="1" y1="-1" x2="96.1752" y2="-1" transform="matrix(1.24407e-07 -1 -1 -1.53583e-08 221 154.829)" stroke="#9F4BFF" stroke-width="2" stroke-miterlimit="16" stroke-linecap="round" stroke-dasharray="0.05 7"/>
<line x1="1" y1="-1" x2="96.1752" y2="-1" transform="matrix(1.24407e-07 -1 -1 -1.53583e-08 238 179.937)" stroke="#9F4BFF" stroke-width="2" stroke-miterlimit="16" stroke-linecap="round" stroke-dasharray="0.05 7"/>
<line x1="1" y1="-1" x2="96.1752" y2="-1" transform="matrix(1.24407e-07 -1 -1 -1.53583e-08 272 176.217)" stroke="#9F4BFF" stroke-width="2" stroke-miterlimit="16" stroke-linecap="round" stroke-dasharray="0.05 7"/>
<line x1="1" y1="-1" x2="121.748" y2="-1" transform="matrix(1.24407e-07 -1 -1 -1.53583e-08 306 192.491)" stroke="#9F4BFF" stroke-width="2" stroke-miterlimit="16" stroke-linecap="round" stroke-dasharray="0.05 7"/>
<line x1="1" y1="-1" x2="121.748" y2="-1" transform="matrix(1.24407e-07 -1 -1 -1.53583e-08 323 156.689)" stroke="#9F4BFF" stroke-width="2" stroke-miterlimit="16" stroke-linecap="round" stroke-dasharray="0.05 7"/>
<line x1="1" y1="-1" x2="42.2407" y2="-1" transform="matrix(1.24407e-07 -1 -1 -1.53583e-08 187 344.995)" stroke="#9F4BFF" stroke-width="2" stroke-miterlimit="16" stroke-linecap="round" stroke-dasharray="0.05 7"/>
<line x1="1" y1="-1" x2="96.1752" y2="-1" transform="matrix(1.24407e-07 -1 -1 -1.53583e-08 204 285.481)" stroke="#9F4BFF" stroke-width="2" stroke-miterlimit="16" stroke-linecap="round" stroke-dasharray="0.05 7"/>
<line x1="1" y1="-1" x2="81.7617" y2="-1" transform="matrix(9.40124e-08 -1 -1 -2.03238e-08 221 396.14)" stroke="#9F4BFF" stroke-width="2" stroke-miterlimit="16" stroke-linecap="round" stroke-dasharray="0.05 7"/>
<line x1="1" y1="-1" x2="59.9089" y2="-1" transform="matrix(1.24407e-07 -1 -1 -1.53583e-08 238 337.091)" stroke="#9F4BFF" stroke-width="2" stroke-miterlimit="16" stroke-linecap="round" stroke-dasharray="0.05 7"/>
<line x1="1" y1="-1" x2="131.977" y2="-1" transform="matrix(9.40124e-08 -1 -1 -2.03238e-08 255 378.007)" stroke="#9F4BFF" stroke-width="2" stroke-miterlimit="16" stroke-linecap="round" stroke-dasharray="0.05 7"/>
<line x1="1" y1="-1" x2="77.5771" y2="-1" transform="matrix(9.40124e-08 -1 -1 -2.03238e-08 272 378.007)" stroke="#9F4BFF" stroke-width="2" stroke-miterlimit="16" stroke-linecap="round" stroke-dasharray="0.05 7"/>
<line x1="1" y1="-1" x2="138.021" y2="-1" transform="matrix(1.24407e-07 -1 -1 -1.53583e-08 289 336.626)" stroke="#9F4BFF" stroke-width="2" stroke-miterlimit="16" stroke-linecap="round" stroke-dasharray="0.05 7"/>
<line x1="1" y1="-1" x2="59.9089" y2="-1" transform="matrix(1.24407e-07 -1 -1 -1.53583e-08 306 367.778)" stroke="#9F4BFF" stroke-width="2" stroke-miterlimit="16" stroke-linecap="round" stroke-dasharray="0.05 7"/>
<line x1="1" y1="-1" x2="96.1752" y2="-1" transform="matrix(1.24407e-07 -1 -1 -1.53583e-08 323 336.626)" stroke="#9F4BFF" stroke-width="2" stroke-miterlimit="16" stroke-linecap="round" stroke-dasharray="0.05 7"/>
<line x1="1" y1="-1" x2="58.514" y2="-1" transform="matrix(9.40124e-08 -1 -1 -2.03238e-08 340 247.82)" stroke="#9F4BFF" stroke-width="2" stroke-miterlimit="16" stroke-linecap="round" stroke-dasharray="0.05 7"/>
<line x1="1" y1="-1" x2="44.5654" y2="-1" transform="matrix(1.24407e-07 -1 -1 -1.53583e-08 340 367.778)" stroke="#9F4BFF" stroke-width="2" stroke-miterlimit="16" stroke-linecap="round" stroke-dasharray="0.05 7"/>
<line x1="1" y1="-1" x2="129.187" y2="-1" transform="matrix(9.40124e-08 -1 -1 -2.03238e-08 102 200.86)" stroke="#9F4BFF" stroke-width="2" stroke-miterlimit="16" stroke-linecap="round" stroke-dasharray="0.05 7"/>
<line x1="1" y1="-1" x2="28.2921" y2="-1" transform="matrix(-9.40123e-08 -1 -1 2.03237e-08 0 108.334)" stroke="#9F4BFF" stroke-width="2" stroke-miterlimit="16" stroke-linecap="round" stroke-dasharray="0.05 7"/>
<line x1="1" y1="-1" x2="28.2921" y2="-1" transform="matrix(-9.40123e-08 -1 -1 2.03237e-08 17 108.334)" stroke="#9F4BFF" stroke-width="2" stroke-miterlimit="16" stroke-linecap="round" stroke-dasharray="0.05 7"/>
<line x1="1" y1="-1" x2="83.1565" y2="-1" transform="matrix(9.40124e-08 -1 -1 -2.03238e-08 51 383.586)" stroke="#9F4BFF" stroke-width="2" stroke-miterlimit="16" stroke-linecap="round" stroke-dasharray="0.05 7"/>
<line x1="1" y1="-1" x2="81.7617" y2="-1" transform="matrix(9.40124e-08 -1 -1 -2.03238e-08 374 373.822)" stroke="#9F4BFF" stroke-width="2" stroke-linecap="round"/>
<line x1="1" y1="-1" x2="191.491" y2="-1" transform="matrix(9.40124e-08 -1 -1 -2.03238e-08 357 380.797)" stroke="#9F4BFF" stroke-width="2" stroke-linecap="round"/>
<line x1="1" y1="-1" x2="139.416" y2="-1" transform="matrix(9.40124e-08 -1 -1 -2.03238e-08 425 388.701)" stroke="#9F4BFF" stroke-width="2" stroke-linecap="round"/>
<line x1="1" y1="-1" x2="152.9" y2="-1" transform="matrix(9.40124e-08 -1 -1 -2.03238e-08 442 347.32)" stroke="#9F4BFF" stroke-width="2" stroke-linecap="round"/>
<line x1="1" y1="-1" x2="141.276" y2="-1" transform="matrix(9.40124e-08 -1 -1 -2.03238e-08 459 349.645)" stroke="#9F4BFF" stroke-width="2" stroke-linecap="round"/>
<line x1="1" y1="-1" x2="36.6612" y2="-1" transform="matrix(9.40124e-08 -1 -1 -2.03238e-08 476 379.402)" stroke="#9F4BFF" stroke-width="2" stroke-linecap="round"/>
<line x1="1" y1="-1" x2="59.9089" y2="-1" transform="matrix(9.40124e-08 -1 -1 -2.03238e-08 493 315.703)" stroke="#9F4BFF" stroke-width="2" stroke-linecap="round"/>
<line x1="1" y1="-1" x2="151.97" y2="-1" transform="matrix(9.40124e-08 -1 -1 -2.03238e-08 493 184.121)" stroke="#9F4BFF" stroke-width="2" stroke-linecap="round"/>
<line x1="1" y1="-1" x2="66.4182" y2="-1" transform="matrix(9.40124e-08 -1 -1 -2.03238e-08 476 229.687)" stroke="#9F4BFF" stroke-width="2" stroke-linecap="round"/>
<line x1="1" y1="-1" x2="133.371" y2="-1" transform="matrix(9.40124e-08 -1 -1 -2.03238e-08 510 306.869)" stroke="#9F4BFF" stroke-width="2" stroke-linecap="round"/>
<line x1="1" y1="-1" x2="74.7874" y2="-1" transform="matrix(9.40124e-08 -1 -1 -2.03238e-08 527 356.619)" stroke="#9F4BFF" stroke-width="2" stroke-linecap="round"/>
<line x1="1" y1="-1" x2="15.7383" y2="-1" transform="matrix(9.40124e-08 -1 -1 -2.03238e-08 544 367.778)" stroke="#9F4BFF" stroke-width="2" stroke-linecap="round"/>
<line x1="1" y1="-1" x2="91.5257" y2="-1" transform="matrix(9.40124e-08 -1 -1 -2.03238e-08 561 386.376)" stroke="#9F4BFF" stroke-width="2" stroke-linecap="round"/>
<line x1="1" y1="-1" x2="132.442" y2="-1" transform="matrix(9.40124e-08 -1 -1 -2.03238e-08 544 293.85)" stroke="#9F4BFF" stroke-width="2" stroke-linecap="round"/>
<line x1="1" y1="-1" x2="132.442" y2="-1" transform="matrix(9.40124e-08 -1 -1 -2.03238e-08 561 181.797)" stroke="#9F4BFF" stroke-width="2" stroke-linecap="round"/>
<line x1="1" y1="-1" x2="132.442" y2="-1" transform="matrix(9.40124e-08 -1 -1 -2.03238e-08 527 188.306)" stroke="#9F4BFF" stroke-width="2" stroke-linecap="round"/>
<line x1="1" y1="-1" x2="138.951" y2="-1" transform="matrix(9.40124e-08 -1 -1 -2.03238e-08 578 244.565)" stroke="#9F4BFF" stroke-width="2" stroke-linecap="round"/>
<line x1="1" y1="-1" x2="147.32" y2="-1" transform="matrix(9.40124e-08 -1 -1 -2.03238e-08 612 235.731)" stroke="#9F4BFF" stroke-width="2" stroke-linecap="round"/>
<line x1="1" y1="-1" x2="147.32" y2="-1" transform="matrix(9.40124e-08 -1 -1 -2.03238e-08 646 190.631)" stroke="#9F4BFF" stroke-width="2" stroke-linecap="round"/>
<line x1="1" y1="-1" x2="61.3037" y2="-1" transform="matrix(9.40124e-08 -1 -1 -2.03238e-08 663 65.0934)" stroke="#9F4BFF" stroke-width="2" stroke-linecap="round"/>
<line x1="1" y1="-1" x2="183.121" y2="-1" transform="matrix(9.40124e-08 -1 -1 -2.03238e-08 697 184.121)" stroke="#9F4BFF" stroke-width="2" stroke-linecap="round"/>
<line x1="1" y1="-1" x2="66.8832" y2="-1" transform="matrix(9.40124e-08 -1 -1 -2.03238e-08 680 232.942)" stroke="#9F4BFF" stroke-width="2" stroke-linecap="round"/>
<line x1="1" y1="-1" x2="81.7617" y2="-1" transform="matrix(9.40124e-08 -1 -1 -2.03238e-08 595 271.068)" stroke="#9F4BFF" stroke-width="2" stroke-linecap="round"/>
<line x1="1" y1="-1" x2="34.3364" y2="-1" transform="matrix(9.40124e-08 -1 -1 -2.03238e-08 595 377.077)" stroke="#9F4BFF" stroke-width="2" stroke-linecap="round"/>
<line x1="1" y1="-1" x2="108.729" y2="-1" transform="matrix(9.40124e-08 -1 -1 -2.03238e-08 629 293.85)" stroke="#9F4BFF" stroke-width="2" stroke-linecap="round"/>
<line x1="1" y1="-1" x2="25.0374" y2="-1" transform="matrix(9.40124e-08 -1 -1 -2.03238e-08 646 367.778)" stroke="#9F4BFF" stroke-width="2" stroke-linecap="round"/>
<line x1="1" y1="-1" x2="99.4299" y2="-1" transform="matrix(9.40124e-08 -1 -1 -2.03238e-08 663 301.29)" stroke="#9F4BFF" stroke-width="2" stroke-linecap="round"/>
<line x1="1" y1="-1" x2="16.6682" y2="-1" transform="matrix(9.40124e-08 -1 -1 -2.03238e-08 680 359.409)" stroke="#9F4BFF" stroke-width="2" stroke-linecap="round"/>
<line x1="1" y1="-1" x2="61.3037" y2="-1" transform="matrix(9.40124e-08 -1 -1 -2.03238e-08 697 315.703)" stroke="#9F4BFF" stroke-width="2" stroke-linecap="round"/>
<line x1="1" y1="-1" x2="80.3668" y2="-1" transform="matrix(9.40124e-08 -1 -1 -2.03238e-08 408 293.85)" stroke="#9F4BFF" stroke-width="2" stroke-linecap="round"/>
<line x1="1" y1="-1" x2="151.04" y2="-1" transform="matrix(9.40124e-08 -1 -1 -2.03238e-08 391 333.836)" stroke="#9F4BFF" stroke-width="2" stroke-linecap="round"/>
<line x1="1" y1="-1" x2="73.3925" y2="-1" transform="matrix(-9.40123e-08 -1 -1 2.03237e-08 374 188.306)" stroke="#9F4BFF" stroke-width="2" stroke-linecap="round"/>
<line x1="1" y1="-1" x2="17.5981" y2="-1" transform="matrix(-9.40123e-08 -1 -1 2.03237e-08 357 132.512)" stroke="#9F4BFF" stroke-width="2" stroke-linecap="round"/>
<line x1="1" y1="-1" x2="17.5981" y2="-1" transform="matrix(-9.40123e-08 -1 -1 2.03237e-08 408 137.626)" stroke="#9F4BFF" stroke-width="2" stroke-linecap="round"/>
<line x1="1" y1="-1" x2="17.5981" y2="-1" transform="matrix(-9.40123e-08 -1 -1 2.03237e-08 442 102.755)" stroke="#9F4BFF" stroke-width="2" stroke-linecap="round"/>
<line x1="1" y1="-1" x2="25.0374" y2="-1" transform="matrix(-9.40123e-08 -1 -1 2.03237e-08 391 367.778)" stroke="#9F4BFF" stroke-width="2" stroke-miterlimit="16" stroke-linecap="round" stroke-dasharray="0.05 7"/>
<line x1="1" y1="-1" x2="86.4112" y2="-1" transform="matrix(-9.40123e-08 -1 -1 2.03237e-08 374 283.157)" stroke="#9F4BFF" stroke-width="2" stroke-miterlimit="16" stroke-linecap="round" stroke-dasharray="0.05 7"/>
<line x1="1" y1="-1" x2="42.2407" y2="-1" transform="matrix(-9.40123e-08 -1 -1 2.03237e-08 357 181.797)" stroke="#9F4BFF" stroke-width="2" stroke-miterlimit="16" stroke-linecap="round" stroke-dasharray="0.05 7"/>
<line x1="1" y1="-1" x2="49.215" y2="-1" transform="matrix(-9.40123e-08 -1 -1 2.03237e-08 391 169.243)" stroke="#9F4BFF" stroke-width="2" stroke-miterlimit="16" stroke-linecap="round" stroke-dasharray="0.05 7"/>
<line x1="1" y1="-1" x2="60.3738" y2="-1" transform="matrix(9.40124e-08 -1 -1 -2.03238e-08 408 203.185)" stroke="#9F4BFF" stroke-width="2" stroke-miterlimit="16" stroke-linecap="round" stroke-dasharray="0.05 7"/>
<line x1="1" y1="-1" x2="25.9673" y2="-1" transform="matrix(9.40124e-08 -1 -1 -2.03238e-08 408 111.124)" stroke="#9F4BFF" stroke-width="2" stroke-miterlimit="16" stroke-linecap="round" stroke-dasharray="0.05 7"/>
<line x1="1" y1="-1" x2="25.9673" y2="-1" transform="matrix(9.40124e-08 -1 -1 -2.03238e-08 442 79.0421)" stroke="#9F4BFF" stroke-width="2" stroke-miterlimit="16" stroke-linecap="round" stroke-dasharray="0.05 7"/>
<line x1="1" y1="-1" x2="25.9673" y2="-1" transform="matrix(9.40124e-08 -1 -1 -2.03238e-08 612 78.5771)" stroke="#9F4BFF" stroke-width="2" stroke-miterlimit="16" stroke-linecap="round" stroke-dasharray="0.05 7"/>
<line x1="1" y1="-1" x2="129.652" y2="-1" transform="matrix(9.40124e-08 -1 -1 -2.03238e-08 425 237.126)" stroke="#9F4BFF" stroke-width="2" stroke-miterlimit="16" stroke-linecap="round" stroke-dasharray="0.05 7"/>
<line x1="1" y1="-1" x2="80.8318" y2="-1" transform="matrix(9.40124e-08 -1 -1 -2.03238e-08 442 188.306)" stroke="#9F4BFF" stroke-width="2" stroke-miterlimit="16" stroke-linecap="round" stroke-dasharray="0.05 7"/>
<line x1="1" y1="-1" x2="19.9229" y2="-1" transform="matrix(9.40124e-08 -1 -1 -2.03238e-08 442 373.822)" stroke="#9F4BFF" stroke-width="2" stroke-miterlimit="16" stroke-linecap="round" stroke-dasharray="0.05 7"/>
<line x1="1" y1="-1" x2="12.0187" y2="-1" transform="matrix(1.24407e-07 -1 -1 -1.53583e-08 459 367.778)" stroke="#9F4BFF" stroke-width="2" stroke-miterlimit="16" stroke-linecap="round" stroke-dasharray="0.05 7"/>
<line x1="1" y1="-1" x2="96.1752" y2="-1" transform="matrix(1.24407e-07 -1 -1 -1.53583e-08 476 336.626)" stroke="#9F4BFF" stroke-width="2" stroke-miterlimit="16" stroke-linecap="round" stroke-dasharray="0.05 7"/>
<line x1="1" y1="-1" x2="96.1752" y2="-1" transform="matrix(1.24407e-07 -1 -1 -1.53583e-08 476 156.689)" stroke="#9F4BFF" stroke-width="2" stroke-miterlimit="16" stroke-linecap="round" stroke-dasharray="0.05 7"/>
<line x1="1" y1="-1" x2="44.5654" y2="-1" transform="matrix(1.24407e-07 -1 -1 -1.53583e-08 493 367.778)" stroke="#9F4BFF" stroke-width="2" stroke-miterlimit="16" stroke-linecap="round" stroke-dasharray="0.05 7"/>
<line x1="1" y1="-1" x2="56.1893" y2="-1" transform="matrix(1.24407e-07 -1 -1 -1.53583e-08 493 248.75)" stroke="#9F4BFF" stroke-width="2" stroke-miterlimit="16" stroke-linecap="round" stroke-dasharray="0.05 7"/>
<line x1="1" y1="-1" x2="34.8014" y2="-1" transform="matrix(9.40124e-08 -1 -1 -2.03238e-08 510 347.32)" stroke="#9F4BFF" stroke-width="2" stroke-miterlimit="16" stroke-linecap="round" stroke-dasharray="0.05 7"/>
<line x1="1" y1="-1" x2="76.6472" y2="-1" transform="matrix(1.24407e-07 -1 -1 -1.53583e-08 527 271.068)" stroke="#9F4BFF" stroke-width="2" stroke-miterlimit="16" stroke-linecap="round" stroke-dasharray="0.05 7"/>
<line x1="1" y1="-1" x2="96.1752" y2="-1" transform="matrix(1.24407e-07 -1 -1 -1.53583e-08 510 165.058)" stroke="#9F4BFF" stroke-width="2" stroke-miterlimit="16" stroke-linecap="round" stroke-dasharray="0.05 7"/>
<line x1="1" y1="-1" x2="96.1752" y2="-1" transform="matrix(1.24407e-07 -1 -1 -1.53583e-08 544 152.97)" stroke="#9F4BFF" stroke-width="2" stroke-miterlimit="16" stroke-linecap="round" stroke-dasharray="0.05 7"/>
<line x1="1" y1="-1" x2="38.986" y2="-1" transform="matrix(9.40124e-08 -1 -1 -2.03238e-08 578 97.6402)" stroke="#9F4BFF" stroke-width="2" stroke-miterlimit="16" stroke-linecap="round" stroke-dasharray="0.05 7"/>
<line x1="1" y1="-1" x2="96.1752" y2="-1" transform="matrix(1.24407e-07 -1 -1 -1.53583e-08 595 179.937)" stroke="#9F4BFF" stroke-width="2" stroke-miterlimit="16" stroke-linecap="round" stroke-dasharray="0.05 7"/>
<line x1="1" y1="-1" x2="96.1752" y2="-1" transform="matrix(1.24407e-07 -1 -1 -1.53583e-08 629 176.217)" stroke="#9F4BFF" stroke-width="2" stroke-miterlimit="16" stroke-linecap="round" stroke-dasharray="0.05 7"/>
<line x1="1" y1="-1" x2="121.748" y2="-1" transform="matrix(1.24407e-07 -1 -1 -1.53583e-08 663 192.491)" stroke="#9F4BFF" stroke-width="2" stroke-miterlimit="16" stroke-linecap="round" stroke-dasharray="0.05 7"/>
<line x1="1" y1="-1" x2="121.748" y2="-1" transform="matrix(1.24407e-07 -1 -1 -1.53583e-08 680 156.689)" stroke="#9F4BFF" stroke-width="2" stroke-miterlimit="16" stroke-linecap="round" stroke-dasharray="0.05 7"/>
<line x1="1" y1="-1" x2="42.2407" y2="-1" transform="matrix(1.24407e-07 -1 -1 -1.53583e-08 544 344.995)" stroke="#9F4BFF" stroke-width="2" stroke-miterlimit="16" stroke-linecap="round" stroke-dasharray="0.05 7"/>
<line x1="1" y1="-1" x2="96.1752" y2="-1" transform="matrix(1.24407e-07 -1 -1 -1.53583e-08 561 285.481)" stroke="#9F4BFF" stroke-width="2" stroke-miterlimit="16" stroke-linecap="round" stroke-dasharray="0.05 7"/>
<line x1="1" y1="-1" x2="109.659" y2="-1" transform="matrix(9.40124e-08 -1 -1 -2.03238e-08 578 359.409)" stroke="#9F4BFF" stroke-width="2" stroke-miterlimit="16" stroke-linecap="round" stroke-dasharray="0.05 7"/>
<line x1="1" y1="-1" x2="59.9089" y2="-1" transform="matrix(1.24407e-07 -1 -1 -1.53583e-08 595 337.091)" stroke="#9F4BFF" stroke-width="2" stroke-miterlimit="16" stroke-linecap="round" stroke-dasharray="0.05 7"/>
<line x1="1" y1="-1" x2="134.766" y2="-1" transform="matrix(9.40124e-08 -1 -1 -2.03238e-08 612 380.797)" stroke="#9F4BFF" stroke-width="2" stroke-miterlimit="16" stroke-linecap="round" stroke-dasharray="0.05 7"/>
<line x1="1" y1="-1" x2="97.5701" y2="-1" transform="matrix(4.37114e-08 -1 -1 -4.37114e-08 629 398)" stroke="#9F4BFF" stroke-width="2" stroke-miterlimit="16" stroke-linecap="round" stroke-dasharray="0.05 7"/>
<line x1="1" y1="-1" x2="138.021" y2="-1" transform="matrix(1.24407e-07 -1 -1 -1.53583e-08 646 336.626)" stroke="#9F4BFF" stroke-width="2" stroke-miterlimit="16" stroke-linecap="round" stroke-dasharray="0.05 7"/>
<line x1="1" y1="-1" x2="46.8902" y2="-1" transform="matrix(9.40124e-08 -1 -1 -2.03238e-08 663 354.759)" stroke="#9F4BFF" stroke-width="2" stroke-miterlimit="16" stroke-linecap="round" stroke-dasharray="0.05 7"/>
<line x1="1" y1="-1" x2="96.1752" y2="-1" transform="matrix(1.24407e-07 -1 -1 -1.53583e-08 680 336.626)" stroke="#9F4BFF" stroke-width="2" stroke-miterlimit="16" stroke-linecap="round" stroke-dasharray="0.05 7"/>
<line x1="1" y1="-1" x2="58.514" y2="-1" transform="matrix(9.40124e-08 -1 -1 -2.03238e-08 697 247.82)" stroke="#9F4BFF" stroke-width="2" stroke-miterlimit="16" stroke-linecap="round" stroke-dasharray="0.05 7"/>
<line x1="1" y1="-1" x2="56.1893" y2="-1" transform="matrix(9.40124e-08 -1 -1 -2.03238e-08 697 379.402)" stroke="#9F4BFF" stroke-width="2" stroke-miterlimit="16" stroke-linecap="round" stroke-dasharray="0.05 7"/>
<line x1="1" y1="-1" x2="129.187" y2="-1" transform="matrix(9.40124e-08 -1 -1 -2.03238e-08 459 200.86)" stroke="#9F4BFF" stroke-width="2" stroke-miterlimit="16" stroke-linecap="round" stroke-dasharray="0.05 7"/>
<line x1="1" y1="-1" x2="28.2921" y2="-1" transform="matrix(-9.40123e-08 -1 -1 2.03237e-08 357 108.334)" stroke="#9F4BFF" stroke-width="2" stroke-miterlimit="16" stroke-linecap="round" stroke-dasharray="0.05 7"/>
<line x1="1" y1="-1" x2="28.2921" y2="-1" transform="matrix(-9.40123e-08 -1 -1 2.03237e-08 374 108.334)" stroke="#9F4BFF" stroke-width="2" stroke-miterlimit="16" stroke-linecap="round" stroke-dasharray="0.05 7"/>
<line x1="1" y1="-1" x2="83.1565" y2="-1" transform="matrix(9.40124e-08 -1 -1 -2.03238e-08 408 383.586)" stroke="#9F4BFF" stroke-width="2" stroke-miterlimit="16" stroke-linecap="round" stroke-dasharray="0.05 7"/>
</svg>
